<svg xmlns="http://www.w3.org/2000/svg" xmlns:xlink="http://www.w3.org/1999/xlink" width="94px"
     height="94px" viewBox="0 0 94 94" version="1.1">
    <title>iconfinder_Shopping_877023</title>
    <desc>Created with Sketch.</desc>
    <g id="Page-1" stroke="none" stroke-width="1" fill="none" fill-rule="evenodd">
        <g id="iconfinder_Shopping_877023" transform="translate(0.000000, -0.000000)">
            <path d="M47,93.871 C21.113,93.871 0.129,72.886 0.129,47 C0.129,21.113 21.113,0.129 47,0.129 C72.886,0.129 93.871,21.113 93.871,47 C93.871,72.886 72.886,93.871 47,93.871"
                  id="Path" fill="#4E901A"/>
            <path d="M59.977,34.767 L54.075,28.883 L54.05,28.854 C54.193,29.27 54.298,29.703 54.364,30.146 L54.567,30.146 L54.567,36.596 L55.182,36.596 L54.945,36.474 L54.945,36.019 L54.945,35.517 L54.945,34.767 L55.695,34.767 L59.977,34.767 Z M62.217,42.408 L62.224,42.408 L62.224,43.158 L62.224,62.708 L62.224,63.458 L62.217,63.458 L62.217,63.958 L62.252,63.958 L62.343,64.605 L63.004,69.351 L63.122,70.204 L62.263,70.204 L33.169,70.204 L55.871,93.029 C71.606,90.014 84.545,79.132 90.437,64.633 L62.224,37.003 L62.224,41.158 L62.224,41.908 L62.217,41.908 L62.217,42.408 Z"
                  id="Shape" fill="#458016"/>
            <path d="M54.693,34.517 L61.645,34.517" id="Path" stroke="#FFFFFF" stroke-width="1.9998"
                  stroke-linecap="round" stroke-linejoin="round"/>
            <path d="M61.645,34.517 C62.098,34.517 62.472,34.926 62.472,35.371" id="Path"
                  stroke="#FFFFFF" stroke-width="1.9998" stroke-linecap="round"
                  stroke-linejoin="round"/>
            <polyline id="Path" stroke="#FFFFFF" stroke-width="1.9998" stroke-linecap="round"
                      stroke-linejoin="round" points="62.472 35.37 62.472 63.737 63.297 69.655"/>
            <path d="M63.297,69.655 C63.359,70.096 62.914,70.454 62.469,70.454" id="Path"
                  stroke="#FFFFFF" stroke-width="1.9998" stroke-linecap="round"
                  stroke-linejoin="round"/>
            <path d="M62.469,70.454 L31.528,70.454" id="Path" stroke="#FFFFFF" stroke-width="1.9998"
                  stroke-linecap="round" stroke-linejoin="round"/>
            <path d="M31.528,70.454 C31.083,70.454 30.64,70.079 30.704,69.628" id="Path"
                  stroke="#FFFFFF" stroke-width="1.9998" stroke-linecap="round"
                  stroke-linejoin="round"/>
            <polyline id="Path" stroke="#FFFFFF" stroke-width="1.9998" stroke-linecap="round"
                      stroke-linejoin="round" points="30.704 69.628 31.528 63.792 31.528 35.343"/>
            <path d="M31.528,35.343 C31.528,34.888 31.899,34.517 32.353,34.517" id="Path"
                  stroke="#FFFFFF" stroke-width="1.9998" stroke-linecap="round"
                  stroke-linejoin="round"/>
            <path d="M32.354,34.517 L39.308,34.517" id="Path" stroke="#FFFFFF" stroke-width="1.9998"
                  stroke-linecap="round" stroke-linejoin="round"/>
            <path d="M39.308,34.517 L54.693,34.517" id="Path" stroke="#FFFFFF" stroke-width="1.9998"
                  stroke-linecap="round" stroke-linejoin="round"/>
            <path d="M54.693,38.058 L54.693,31.237" id="Path" stroke="#FFFFFF" stroke-width="1.9998"
                  stroke-linecap="round" stroke-linejoin="round"/>
            <path d="M54.693,31.237 C54.693,27.007 51.231,23.546 47,23.546 C42.769,23.546 39.308,27.007 39.308,31.237"
                  id="Path" stroke="#FFFFFF" stroke-width="1.9998" stroke-linecap="round"
                  stroke-linejoin="round"/>
            <path d="M39.308,31.237 L39.308,38.058" id="Path" stroke="#FFFFFF" stroke-width="1.9998"
                  stroke-linecap="round" stroke-linejoin="round"/>
            <path d="M39.298,36.772 C39.976,36.772 40.526,37.321 40.526,38.001 C40.526,38.679 39.976,39.228 39.298,39.228 C38.62,39.228 38.07,38.679 38.07,38.001 C38.07,37.321 38.62,36.772 39.298,36.772"
                  id="Path" stroke="#FFFFFF" stroke-width="1.9998" stroke-linecap="round"
                  stroke-linejoin="round"/>
            <path d="M54.679,36.772 C55.358,36.772 55.907,37.321 55.907,38.001 C55.907,38.679 55.358,39.228 54.679,39.228 C54.001,39.228 53.452,38.679 53.452,38.001 C53.452,37.321 54.001,36.772 54.679,36.772"
                  id="Path" stroke="#FFFFFF" stroke-width="1.9998" stroke-linecap="round"
                  stroke-linejoin="round"/>
            <path d="M62.472,63.708 L31.528,63.708" id="Path" stroke="#FFFFFF" stroke-width="1.9998"
                  stroke-linecap="round" stroke-linejoin="round"/>
            <path d="M31.528,42.158 L62.472,42.158" id="Path" stroke="#FFFFFF" stroke-width="1.9998"
                  stroke-linecap="round" stroke-linejoin="round"/>
        </g>
    </g>
</svg>