<svg xmlns="http://www.w3.org/2000/svg" xmlns:xlink="http://www.w3.org/1999/xlink" width="94px"
     height="94px" viewBox="0 0 94 94" version="1.1">
    <title>iconfinder_Safe_877017</title>
    <desc>Created with Sketch.</desc>
    <g id="Page-1" stroke="none" stroke-width="1" fill="none" fill-rule="evenodd">
        <g id="iconfinder_Safe_877017">
            <path d="M47,93.871 C21.114,93.871 0.128,72.887 0.128,47 C0.128,21.114 21.114,0.128 47,0.128 C72.887,0.128 93.871,21.113 93.871,46.999 C93.871,72.887 72.887,93.871 47,93.871"
                  id="Path" fill="#4E901A"/>
            <path d="M32.659,41.757 C32.598,41.695 32.54,41.63 32.485,41.561 C32.534,41.6 32.584,41.636 32.635,41.669 L32.659,41.757 Z M53.041,26.132 L90.752,63.838 L90.752,63.84 C83.987,81.406 66.951,93.871 47,93.871 L21.499,68.281 L56.575,68.283 C58.247,69.881 60.541,71.146 63.203,71.904 C63.25,71.918 63.297,71.916 63.34,71.904 C66.168,71.099 68.58,69.72 70.274,67.98 C71.931,66.275 72.901,64.222 72.901,62.017 L72.901,52.939 C72.901,52.396 71.692,52.994 71.366,53.056 C70.966,53.132 70.55,53.171 70.122,53.171 C68.417,53.171 66.863,52.526 65.693,51.466 C64.51,50.396 63.717,48.902 63.553,47.224 C63.54,47.097 63.432,47 63.305,47 L63.305,47 L63.239,47 C63.102,47 62.991,47.109 62.989,47.245 C62.819,48.914 62.028,50.401 60.85,51.467 C59.68,52.528 58.127,53.172 56.422,53.172 C55.993,53.172 55.577,53.133 55.178,53.057 C54.764,52.977 54.365,52.86 53.985,52.709 C53.858,52.658 53.712,52.721 53.662,52.848 C53.65,52.879 53.644,52.911 53.644,52.94 L53.643,52.94 L53.643,54.36 C53.032,54.198 52.452,54.04 51.93,53.889 C51.345,53.719 50.813,53.553 50.362,53.385 C50.111,52.975 49.95,52.365 49.848,51.692 C49.702,50.708 49.686,49.598 49.709,48.751 C50.911,46.93 51.957,44.57 52.752,41.67 C53.314,41.303 53.713,40.636 53.992,39.87 C54.394,38.77 54.556,37.453 54.603,36.553 C54.671,35.221 53.929,34.308 53.654,34.018 C53.74,33.513 53.783,33.024 53.79,32.553 C53.796,32.078 53.765,31.621 53.699,31.184 C54.121,30.895 54.41,30.549 54.577,30.165 C54.755,29.755 54.791,29.307 54.699,28.839 C54.615,28.407 54.42,27.956 54.126,27.502 L53.041,26.132 Z"
                  id="Shape" fill="#458016"/>
            <path d="M31.998,34.103 C31.998,34.103 30.954,35.031 31.031,36.54 C31.109,38.048 31.515,40.736 32.849,41.51 C37.052,56.997 48.333,56.997 52.535,41.51 C53.869,40.737 54.275,38.048 54.353,36.54 C54.43,35.031 53.386,34.103 53.386,34.103 C53.584,33.007 53.584,31.995 53.425,31.065 C52.989,31.352 52.517,31.553 52.015,31.648 L51.986,31.653 L51.976,31.656 L51.956,31.659 L51.927,31.664 L51.898,31.668 L51.898,31.669 L51.869,31.673 L51.84,31.677 L51.82,31.68 L51.81,31.681 L51.781,31.685 L51.752,31.688 L51.742,31.689 L51.721,31.691 L51.691,31.694 L51.662,31.697 C49.567,32.133 46.985,30.318 42.259,29.257 L42.259,29.257 L42.032,29.207 C35.372,27.769 31.997,33.22 31.997,33.22 C31.977,33.074 31.96,32.931 31.946,32.789 L31.945,32.782 L31.945,32.775 L31.944,32.768 C31.937,33.196 31.954,33.641 31.998,34.103 Z"
                  id="Path" stroke="#FFFFFF" stroke-width="1.9998" stroke-linecap="round"
                  stroke-linejoin="round"/>
            <path d="M45.519,45.721 C44.152,47.124 41.419,47.136 40.022,45.768" id="Path"
                  stroke="#FFFFFF" stroke-width="1.9999" stroke-linecap="round"
                  stroke-linejoin="round"/>
            <path d="M36.086,48.91 C36.107,50.39 35.997,52.621 35.343,53.59 C31.862,54.904 23.413,56.221 22.138,58.617 C21.552,59.717 21.388,64.131 21.351,68.033 L56.676,68.033 C54.924,66.332 53.892,64.254 53.892,62.019 L53.892,54.683 C52.455,54.304 51.142,53.947 50.196,53.589 C49.485,52.534 49.417,50.167 49.462,48.671 C45.562,54.525 40.03,54.605 36.086,48.91 Z"
                  id="Path" stroke="#FFFFFF" stroke-width="1.9998"/>
            <path d="M35.344,54.031 C35.965,55.033 38.116,59.094 42.696,61.33 C46.255,59.715 48.746,57.006 50.196,54.031"
                  id="Path" stroke="#FFFFFF" stroke-width="1.9999"/>
            <path d="M44.372,35.385 C44.899,35.141 45.649,34.988 46.48,34.988 C47.228,34.988 47.909,35.112 48.422,35.314"
                  id="Path" stroke="#FFFFFF" stroke-width="1.9999" stroke-linecap="round"
                  stroke-linejoin="round"/>
            <path d="M46.396,35.417 C47.002,35.417 47.494,35.908 47.494,36.516 C47.494,37.121 47.002,37.614 46.396,37.614 C45.789,37.614 45.298,37.122 45.298,36.516 C45.297,35.908 45.789,35.417 46.396,35.417"
                  id="Path" fill="#FFFFFF"/>
            <path d="M41.015,35.385 C40.487,35.141 39.738,34.988 38.907,34.988 C38.16,34.988 37.479,35.112 36.966,35.314"
                  id="Path" stroke="#FFFFFF" stroke-width="1.9999" stroke-linecap="round"
                  stroke-linejoin="round"/>
            <path d="M31.998,33.218 C31.998,33.218 35.373,27.767 42.033,29.205 C46.903,30.258 49.53,32.112 51.662,31.695 C54.597,31.122 55.071,29.422 53.916,27.635 C51.555,23.982 45.749,21.436 41.278,22.634 C35.74,21.935 30.944,25.416 31.998,33.218 Z"
                  id="Path" stroke="#FFFFFF" stroke-width="1.9998" stroke-linecap="round"
                  stroke-linejoin="round"/>
            <polyline id="Path" stroke="#FFFFFF" stroke-width="1.9998" stroke-linecap="round"
                      stroke-linejoin="round" points="58.002 61.275 61.151 64.426 68.539 57.039"/>
            <path d="M63.304,47.25 L63.237,47.25 C62.897,50.714 59.975,53.421 56.421,53.421 C55.528,53.421 54.675,53.251 53.893,52.939 L53.893,62.017 C53.893,66.359 57.783,70.101 63.272,71.663 C68.761,70.1 72.651,66.358 72.651,62.017 L72.651,52.939 C71.869,53.252 71.015,53.421 70.122,53.421 C66.566,53.422 63.645,50.715 63.304,47.25 Z"
                  id="Path" stroke="#FFFFFF" stroke-width="1.9998" stroke-linecap="round"
                  stroke-linejoin="round"/>
            <path d="M38.989,35.328 C39.645,35.328 40.177,35.859 40.177,36.516 C40.177,37.171 39.645,37.703 38.989,37.703 C38.333,37.703 37.801,37.172 37.801,36.516 C37.802,35.859 38.333,35.328 38.989,35.328"
                  id="Path" fill="#FFFFFF"/>
        </g>
    </g>
</svg>