<svg xmlns="http://www.w3.org/2000/svg" xmlns:xlink="http://www.w3.org/1999/xlink" width="94px"
     height="94px" viewBox="0 0 94 94" version="1.1">
    <title>Group 4</title>
    <desc>Created with Sketch.</desc>
    <g id="Page-1" stroke="none" stroke-width="1" fill="none" fill-rule="evenodd">
        <g id="Group-4">
            <g id="Group-2-Copy">
                <g id="iconfinder_Safe_877017-Copy-2">
                    <path d="M47,93.871 C21.114,93.871 0.128,72.887 0.128,47 C0.128,21.114 21.114,0.128 47,0.128 C72.887,0.128 93.871,21.113 93.871,46.999 C93.871,72.887 72.887,93.871 47,93.871"
                          id="Path" fill="#4E901A"/>
                    <path d="M90.752,63.838 C84.9669204,81.406 66.6824937,92.315062 52.668566,93.3765022 L20.2585392,47.8573666 C22.7122762,49.4552984 24.4650632,50.4021295 25.5169001,50.6978598 C29.1261013,51.7126087 31.534883,51.0828893 31.9787817,51.466 C34.1066747,53.302497 32.7892923,58.3010629 34.4656168,58.8966275 C35.6006577,59.2998848 44.1600544,61.758777 60.1438068,66.2733041 C61.5736151,67.8713041 62.5118678,65.9419886 62.1066671,59.1839271 C61.7014665,52.4258655 70.3233575,52.526 69.3228338,51.466 C68.3111931,50.396 70.2856776,48.8969775 69.9731303,47.245 C69.3228338,43.8078392 64.8318309,37.692454 66,33.7451566 C66.4458572,32.2385843 66.4458572,28.9642838 66,23.922255 L90.752,63.838 Z"
                          id="Shape" fill="#458016"/>
                </g>
            </g>
            <g id="Group-3" transform="translate(21.000000, 22.000000)" stroke="#FFFFFF"
               stroke-width="2">
                <path d="M51.7383721,22.1574345 L51.7383721,37.8038197 C51.7383721,40.2893521 49.7675359,42.3042742 47.3363862,42.3042742 L40.4189799,42.3042742 L40.4647148,49.6569648 L28.9052143,42.3159637 L18.5576891,42.3159637 C16.1280216,42.3159637 13.7383721,40.5625399 13.7383721,38.0551438 L28.030534,29.2880247 L41.7510094,29.2880247 C43.141372,29.2849278 44.4735854,28.7172817 45.454576,27.7099628 C46.4355666,26.7026439 46.9849763,25.3381669 46.9819406,23.9167031 L46.9819406,17.65698 L47.3249525,17.65698 C48.4944115,17.6538745 49.6170134,18.1266568 50.4450205,18.9709926 C51.2730275,19.8153284 51.738376,20.9618117 51.7383721,22.1574345 L51.7383721,22.1574345 Z"
                      id="Path" fill="#FFFFFF" fill-rule="nonzero"/>
                <path d="M44.9999969,5.34038588 L44.9999969,23.9239859 C44.9999969,26.8733978 42.6416909,29.2643685 39.7325732,29.2643685 L25.9465134,29.2643685 L11.5860344,38 L11.5860344,29.2643685 L5.26742368,29.2643685 C2.35961825,29.2611589 0.00316582256,26.8720673 1.42108547e-14,23.9239859 L1.42108547e-14,5.34038588 C1.42108547e-14,2.39097396 2.35830591,3.1869857e-06 5.26742368,3.1869857e-06 L39.7325732,3.1869857e-06 C41.1300482,-0.00154441836 42.4707251,0.560604438 43.4588898,1.56245614 C44.4470544,2.56430785 45.0015233,3.92355446 44.9999969,5.34038588 L44.9999969,5.34038588 Z"
                      id="Path"/>
            </g>
        </g>
    </g>
</svg>