<svg xmlns="http://www.w3.org/2000/svg" xmlns:xlink="http://www.w3.org/1999/xlink" width="94px"
     height="94px" viewBox="0 0 94 94" version="1.1">
    <title>Group 2</title>
    <desc>Created with Sketch.</desc>
    <g id="Page-1" stroke="none" stroke-width="1" fill="none" fill-rule="evenodd">
        <g id="Group-2">
            <g id="iconfinder_Safe_877017-Copy">
                <path d="M47,93.871 C21.114,93.871 0.128,72.887 0.128,47 C0.128,21.114 21.114,0.128 47,0.128 C72.887,0.128 93.871,21.113 93.871,46.999 C93.871,72.887 72.887,93.871 47,93.871"
                      id="Path" fill="#4E901A"/>
                <path d="M90.752,63.838 C83.987,81.406 66.951,93.871 47,93.871 L27.6050728,73.0313656 L58.5256377,72.3341463 C60.1976377,73.9321463 67.0107593,73.0313656 66.5369227,66.2733041 C66.0630862,59.5152426 66.863,52.526 65.693,51.466 C64.51,50.396 66.8189375,48.8969775 66.4534486,47.245 C65.693,43.8078392 69.0791955,45.4808838 70.4452378,41.5335863 C70.9666177,40.0270141 71.3249828,36.8330278 71.5203332,31.9516275 L90.752,63.838 Z"
                      id="Shape" fill="#458016"/>
            </g>
            <g id="Group" transform="translate(24.000000, 22.000000)">
                <path d="M28.0622011,4.48487562 C25.9416729,7.14736211 24.6139051,10.2661094 24.0547524,11.7455773 L27.6914854,11.7455372 L28.0979719,11.7455773 L39.9402443,11.7455372 C41.0471578,10.0820218 42.3358318,7.71956297 42.5164337,5.52649724 C42.6953914,3.35419281 41.7367083,1.32832513 38.2679691,0.341670647 C33.8407825,-0.917594001 30.4452688,1.49284038 28.0622112,4.48487562 L28.0622011,4.48487562 Z M27.3822569,9.57768384 L28.0980095,9.57768384 L38.7433825,9.57764383 C39.510706,8.28144988 40.2433786,6.71395669 40.3558432,5.34854826 C40.5029944,3.56180642 39.2665712,2.87962048 37.6748311,2.42688599 C34.3272421,1.47468327 31.7533697,3.33019855 29.7579885,5.83548858 C28.8642782,6.95764534 28.0659885,8.24363648 27.3822782,9.57768448 L27.3822569,9.57768384 Z"
                      id="Shape" fill="#FFFFFF"/>
                <path d="M22.6718854,11.7455773 C22.1127663,10.2660992 20.7849243,7.14736211 18.6643961,4.48487562 C16.2813691,1.49284038 12.8858452,-0.917594001 8.45863827,0.341670647 C4.989896,1.32832107 4.03121795,3.35419281 4.21017362,5.52649724 C4.39077252,7.71956297 5.67944951,10.0820218 6.78636303,11.7455372 L18.6286355,11.7455773 L19.0351219,11.7455372 L22.6718854,11.7455773 L22.6718854,11.7455773 Z M19.3443362,9.57763303 C18.660631,8.24358503 17.8622966,6.95755324 16.9686259,5.83547778 C14.9732448,3.33018978 12.3993723,1.47467043 9.05178335,2.42687519 C7.46004324,2.87961171 6.22362314,3.56179562 6.37077124,5.34853746 C6.48323488,6.71394589 7.21591152,8.28143908 7.983232,9.57763303 L19.3443261,9.57763303 L19.3443362,9.57763303 Z"
                      id="Shape" fill="#FFFFFF"/>
                <polygon id="Path" stroke="#FFFFFF" stroke-width="2"
                         points="18.6286659 21.8078392 18.6286659 10.8648165 6.57187027 10.8648165 6.35846486 10.8648165 0 10.8648165 0 21.8078392 3.46011459 21.8078392 3.86660108 21.8078392"/>
                <polygon id="Path" stroke="#FFFFFF" stroke-width="2"
                         points="19.4416389 10.8648165 19.4416389 21.8078392 27.2849989 21.8078392 27.2849989 10.8648165 23.82336 10.8648165 23.4750011 10.8648165 23.2515351 10.8648165 22.9031762 10.8648165"/>
                <polygon id="Path" stroke="#FFFFFF" stroke-width="2"
                         points="28.0979719 10.8648165 28.0979719 21.8078392 42.8599351 21.8078392 43.2664216 21.8078392 46.7266378 21.8078392 46.7266378 10.8648165 40.368173 10.8648165 40.1547676 10.8648165"/>
                <polygon id="Path" stroke="#FFFFFF" stroke-width="2"
                         points="42.4534486 22.6208122 28.0979719 22.6208122 28.0979719 50.3341463 42.4534486 50.3341463"/>
                <polygon id="Path" stroke="#FFFFFF" stroke-width="2"
                         points="27.2849989 50.3341463 27.2849989 22.6208122 19.4416389 22.6208122 19.4416389 50.3341463"/>
                <polygon id="Path" stroke="#FFFFFF" stroke-width="2"
                         points="18.6286659 50.3341463 18.6286659 22.6208122 4.27308757 22.6208122 4.27308757 50.3341463"/>
            </g>
        </g>
    </g>
</svg>