<svg xmlns="http://www.w3.org/2000/svg" xmlns:xlink="http://www.w3.org/1999/xlink" width="94px"
     height="94px" viewBox="0 0 94 94" version="1.1">
    <g id="Page-1" stroke="none" stroke-width="1" fill="none" fill-rule="evenodd">
        <g id="Group-9">
            <g id="iconfinder_Shopping_877023-Copy">
                <path d="M46.871,93.742 C20.984,93.742 0,72.757 0,46.871 C0,20.984 20.984,0 46.871,0 C72.757,0 93.742,20.984 93.742,46.871 C93.742,72.757 72.757,93.742 46.871,93.742"
                      id="Path" fill="#4E901A"/>
                <path d="M62.217,42.408 L62.224,42.408 L62.224,43.158 L58.6382593,52.4808618 L54.945,59.9282196 L52.1752717,62.708 C51.0941991,67.2936798 49.5084155,69.2436032 47.4179209,68.5577703 C44.2089518,67.5049971 44.9987097,65.0319335 43.3333333,63.958 C40.0405837,61.8346396 37.0009745,57.887528 34.2145055,52.1166654 L60.4694061,91.7546705 C71.3514678,88.867617 84.545,79.132 90.437,64.633 L59.6840926,28.2333462 L62.224,41.158 L62.224,41.908 L62.217,41.908 L62.217,42.408 Z"
                      id="Shape" fill="#458016"/>
            </g>
            <path d="M47.6666667,22 C37.6666667,22 31,28.6666667 31,38.3333333 C31,51.3333333 43,67.5 46.1666667,70.6666667 C46.3333333,70.8333333 46.6666667,71 47,71 C47,71 47,71 47,71 C47.3333333,71 47.6666667,70.8333333 47.8333333,70.5 C49.5,68.6666667 63.8333333,52 63.8333333,38.3333333 C64,27 55.8333333,22 47.6666667,22 Z M47,67.8333333 C43.1666667,63.3333333 33.5,49.3333333 33.5,38.3333333 C33.5,29.8333333 39,24.5 47.6666667,24.5 C54,24.5 61.5,28.1666667 61.5,38.3333333 C61.5,48.1666667 52.8333333,61.1666667 47,67.8333333 Z M47.5,31.6666667 C43.8333333,31.6666667 40.8333333,34.6666667 40.8333333,38.3333333 C40.8333333,42 43.8333333,45 47.5,45 C51.1666667,45 54.1666667,42 54.1666667,38.3333333 C54.1666667,34.6666667 51.1666667,31.6666667 47.5,31.6666667 Z M47.5,42.5 C45.1666667,42.5 43.3333333,40.6666667 43.3333333,38.3333333 C43.3333333,36 45.1666667,34.1666667 47.5,34.1666667 C49.8333333,34.1666667 51.6666667,36 51.6666667,38.3333333 C51.6666667,40.6666667 49.8333333,42.5 47.5,42.5 Z"
                  id="Shape" fill="#FFFFFF" fill-rule="nonzero"/>
        </g>
    </g>
</svg>