<svg xmlns="http://www.w3.org/2000/svg" xmlns:xlink="http://www.w3.org/1999/xlink" width="94px"
     height="94px" viewBox="0 0 94 94" version="1.1">
    <g id="Page-1" stroke="none" stroke-width="1" fill="none" fill-rule="evenodd">
        <g id="Group-11">
            <g id="Group-10-Copy">
                <g id="iconfinder_Shopping_877023-Copy-3">
                    <path d="M46.871,93.742 C20.984,93.742 0,72.757 0,46.871 C0,20.984 20.984,0 46.871,0 C72.757,0 93.742,20.984 93.742,46.871 C93.742,72.757 72.757,93.742 46.871,93.742"
                          id="Path" fill="#4E901A"/>
                    <path d="M64.767983,46.8287916 L60.8212691,45.6645786 C61.3173888,55.977663 61.4914457,62.3284803 61.3434397,64.7170306 C61.2651026,65.9812513 62.3465344,68.5142682 60.8212691,69.4968186 C59.9169433,70.0793702 57.7367174,70.1306249 54.2805914,69.6505828 L47.0284404,69.6505828 C43.7502224,70.063471 41.2160505,70.1799434 39.4259248,70 C37.6357991,69.8200566 36.8395324,69.6751573 37.0371248,69.5653021 L60.4694061,91.7546705 C73.9263431,88.6136001 87.6358337,74.519046 91.1761613,62.0293578 L71.0688772,30.6652909 L68.3213537,38.3721865 L64.767983,46.8287916 Z"
                          id="Shape" fill="#458016"/>
                </g>
            </g>
            <g id="iconfinder_content-delivery_2944884" transform="translate(27.000000, 24.000000)"
               stroke="#FFFFFF" stroke-width="1.5">
                <polyline id="polyline119" stroke-linecap="round" stroke-linejoin="round"
                          points="33.8212691 25.7050971 33.8212691 45.5653021 10.0025044 45.5653021 0.447302294 35.4982327 0.447302294 0.434698416 33.8212691 0.434698416 33.8212691 6.52972683"/>
                <polyline id="polyline121" stroke-linecap="round" stroke-linejoin="round"
                          points="0.585783484 35.4982327 10.0025044 35.4982327 10.0025044 45.4968186"/>
                <path d="M3.49388879,14.9531979 L12.356684,14.9531979" id="line123"/>
                <path d="M3.49388879,19.7470425 L12.4259248,19.7470425" id="line125"/>
                <path d="M3.49388879,24.5408814 L16.5803608,24.5408814" id="line127"/>
                <path d="M3.49388879,29.3347238 L20.2501129,29.3347238" id="line129"/>
                <path d="M3.49388879,5.63944763 L27.0356898,5.63944763" id="line131"/>
                <polygon id="polygon155" stroke-linecap="round" stroke-linejoin="round"
                         points="44.0688772 6.11882604 37.767983 22.8287916 25.9970819 20.979738 23.7121422 27.7596011 19.4884659 19.1306845 13.9492183 16.8022466"/>
                <path d="M23.7121432,27.7596052 L30.4977203,21.6645786" id="line157"
                      stroke-linecap="round" stroke-linejoin="round"/>
                <polyline id="polyline159" stroke-linecap="round" stroke-linejoin="round"
                          points="26.0663225 20.979738 37.0755771 11.3235694 19.4884659 19.1306845"/>
            </g>
        </g>
    </g>
</svg>