<svg xmlns="http://www.w3.org/2000/svg" xmlns:xlink="http://www.w3.org/1999/xlink" width="94px"
     height="94px" viewBox="0 0 94 94" version="1.1">
    <g id="Page-1" stroke="none" stroke-width="1" fill="none" fill-rule="evenodd">
        <g id="Group-10">
            <g id="Group-9-Copy">
                <g id="iconfinder_Shopping_877023-Copy-2">
                    <path d="M46.871,93.742 C20.984,93.742 0,72.757 0,46.871 C0,20.984 20.984,0 46.871,0 C72.757,0 93.742,20.984 93.742,46.871 C93.742,72.757 72.757,93.742 46.871,93.742"
                          id="Path" fill="#4E901A"/>
                    <path d="M62.217,42.408 L62.224,42.408 L62.224,43.158 C62.5374082,55.3261958 62.6201093,62.6045689 62.4721033,64.9931193 C62.2500944,68.5759448 57.4163333,71.6793323 54.2805914,70.6505828 C52.1412787,69.948734 49.723895,69.948734 47.0284404,70.6505828 C43.5407168,70.8305263 40.9017922,70.8305263 39.1116665,70.6505828 C37.3215407,70.4706394 35.5403337,70.0263278 33.7680454,69.317648 L60.4694061,91.7546705 C73.9263431,88.6136001 87.6358337,74.519046 91.1761613,62.0293578 L62.224,29.1880734 L62.224,41.158 L62.224,41.908 L62.217,41.908 L62.217,42.408 Z"
                          id="Shape" fill="#458016"/>
                </g>
            </g>
            <g id="iconfinder_multimedia-09_2516850" transform="translate(31.000000, 22.000000)">
                <path d="M30.9123853,43.0958716 C30.8366972,46.0298165 28.5949541,48.0399083 25.7316514,48.2266055 C25.0004587,48.2743119 24.2545872,48.2330275 23.5229358,48.2330275 C20.0513761,48.2330275 16.5793578,48.2330275 13.1077982,48.2330275 C11.5977064,48.2330275 10.087156,48.2330275 8.57706422,48.2330275 C7.64633028,48.2330275 6.70733945,48.2784404 5.78944954,48.096789 C3.36697248,47.6169725 1.6059633,45.5550459 1.6059633,43.0784404 C1.6059633,42.6142202 1.6059633,42.1495413 1.6059633,41.6853211 C1.6059633,30.2821101 1.6059633,18.8788991 1.6059633,7.47568807 C1.6059633,5.20642202 2.86055046,3.22293578 4.83944954,2.15183486 C5.89954128,1.57798165 7.04678899,1.6059633 8.20275229,1.6059633 C11.4963303,1.6059633 14.7894495,1.6059633 18.0830275,1.6059633 C20.5270642,1.6059633 22.9711009,1.6059633 25.4151376,1.6059633 C28.116055,1.6059633 30.2220183,3.76513761 30.8041284,6.28211009 C30.9541284,6.92889908 30.9123853,7.63073394 30.9123853,8.29357798 C30.9123853,19.8036697 30.9123853,31.3142202 30.9123853,42.8243119 C30.9123853,42.9146789 30.9123853,43.0050459 30.9123853,43.0958716 C30.9123853,43.9834862 32.2885321,43.9834862 32.2885321,43.0958716 C32.2885321,31.8798165 32.2885321,20.6637615 32.2885321,9.44770642 C32.2885321,7.09724771 32.2610092,4.92752294 30.7270642,2.93165138 C29.4678899,1.29311927 27.4770642,0.229357798 25.3963303,0.229357798 C24.5646789,0.229357798 23.7325688,0.229357798 22.9009174,0.229357798 C19.3527523,0.229357798 15.8045872,0.229357798 12.256422,0.229357798 C9.92981651,0.229357798 7.09174312,-0.162385321 4.85642202,0.647706422 C1.6587156,1.80688073 0.229357798,4.95366972 0.229357798,8.14357798 C0.229357798,10.4545872 0.229357798,12.7655963 0.229357798,15.0766055 C0.229357798,22.2334862 0.229357798,29.390367 0.229357798,36.546789 C0.229357798,38.6068807 0.229357798,40.6674312 0.229357798,42.7275229 C0.229357798,46.4784404 2.77155963,49.1784404 6.48715596,49.5830275 C8.79357798,49.833945 11.2307339,49.6091743 13.5449541,49.6091743 C16.9655963,49.6091743 20.3862385,49.6091743 23.8068807,49.6091743 C25.1165138,49.6091743 26.3844037,49.6440367 27.6619266,49.2720183 C30.4518349,48.4600917 32.2151376,45.9440367 32.2885321,43.0958716 C32.3110092,42.2077982 30.9348624,42.2100917 30.9123853,43.0958716 Z"
                      id="Path" fill="#FFFFFF" fill-rule="nonzero"/>
                <path d="M17.6215596,44.5862385 C17.6215596,45.4655963 16.9082569,46.1793578 16.0284404,46.1793578 L16.0284404,46.1793578 C15.1490826,46.1793578 14.4353211,45.466055 14.4353211,44.5862385 L14.4353211,44.5862385 C14.4353211,43.7068807 15.1490826,42.9931193 16.0284404,42.9931193 L16.0284404,42.9931193 C16.9082569,42.993578 17.6215596,43.7068807 17.6215596,44.5862385 L17.6215596,44.5862385 Z"
                      id="Path" stroke="#FFFFFF"/>
                <rect id="Rectangle" stroke="#FFFFFF" x="3.91605505" y="7.18807339"
                      width="24.6857798" height="32.8412844"/>
                <path d="M20.0243119,4.37706422 C20.0243119,4.72385321 19.6114679,5.00779817 19.1068807,5.00779817 L13.4110092,5.00779817 C12.906422,5.00779817 12.493578,4.72385321 12.493578,4.37706422 C12.493578,4.02981651 12.906422,3.74633028 13.4110092,3.74633028 L19.1068807,3.74633028 C19.6114679,3.74633028 20.0243119,4.02981651 20.0243119,4.37706422 Z"
                      id="Path" fill="#FFFFFF" fill-rule="nonzero"/>
            </g>
        </g>
    </g>
</svg>